M48
; DRILL file {KiCad 9.0.1} date 2026-06-02T22:59:52+0200
; FORMAT={-:-/ absolute / inch / decimal}
; #@! TF.CreationDate,2026-06-02T22:59:52+02:00
; #@! TF.GenerationSoftware,Kicad,Pcbnew,9.0.1
; #@! TF.FileFunction,Plated,1,4,PTH
FMAT,2
INCH
; #@! TA.AperFunction,Plated,PTH,ComponentDrill
T1C0.0197
; #@! TA.AperFunction,Plated,PTH,ViaDrill
T2C0.0315
; #@! TA.AperFunction,Plated,PTH,ComponentDrill
T3C0.0354
; #@! TA.AperFunction,Plated,PTH,ViaDrill
T4C0.0394
; #@! TA.AperFunction,Plated,PTH,ComponentDrill
T5C0.0394
; #@! TA.AperFunction,Plated,PTH,ComponentDrill
T6C0.0512
; #@! TA.AperFunction,Plated,PTH,ComponentDrill
T7C0.0591
; #@! TA.AperFunction,Plated,PTH,ComponentDrill
T8C0.1181
%
G90
G05
T1
X4.0846Y-2.9134
X4.0846Y-4.9213
X4.1106Y-2.8507
X4.1106Y-2.976
X4.1106Y-4.8586
X4.1106Y-4.9839
X4.1732Y-2.8248
X4.1732Y-3.002
X4.1732Y-4.8327
X4.1732Y-5.0098
X4.2359Y-2.8507
X4.2359Y-2.976
X4.2359Y-4.8586
X4.2359Y-4.9839
X4.2618Y-2.9134
X4.2618Y-4.9213
X7.313Y-2.9134
X7.313Y-4.9213
X7.3389Y-2.8507
X7.3389Y-2.976
X7.3389Y-4.8586
X7.3389Y-4.9839
X7.4016Y-2.8248
X7.4016Y-3.002
X7.4016Y-4.8327
X7.4016Y-5.0098
X7.4642Y-2.8507
X7.4642Y-2.976
X7.4642Y-4.8586
X7.4642Y-4.9839
X7.4902Y-2.9134
X7.4902Y-4.9213
T2
X4.2Y-3.25
T3
X6.5315Y-4.9606
X6.6102Y-4.9606
X6.689Y-4.9606
T4
X6.125Y-3.925
X6.5315Y-4.2815
X6.725Y-3.925
T5
X4.3937Y-3.1677
X4.3937Y-3.2677
X4.3937Y-3.3677
X4.3937Y-3.4677
X4.3937Y-3.5677
X4.3937Y-3.6677
X4.3937Y-3.7677
X4.3937Y-3.8677
X4.3937Y-3.9677
X4.3937Y-4.0677
X4.3937Y-4.1677
X4.3937Y-4.2677
X4.3937Y-4.3677
X4.3937Y-4.4677
X4.3937Y-4.5677
X5.3937Y-3.1677
X5.3937Y-3.2677
X5.3937Y-3.3677
X5.3937Y-3.4677
X5.3937Y-3.5677
X5.3937Y-3.6677
X5.3937Y-3.7677
X5.3937Y-3.8677
X5.3937Y-3.9677
X5.3937Y-4.0677
X5.3937Y-4.1677
X5.3937Y-4.2677
X5.3937Y-4.3677
X5.3937Y-4.4677
X5.3937Y-4.5677
X5.6Y-4.4
X5.6496Y-3.0008
X5.6496Y-3.1008
X5.6496Y-3.2008
X5.6496Y-3.3008
X5.6496Y-3.4008
X5.6496Y-3.5008
X5.6496Y-3.6008
X5.6496Y-3.7008
X5.7Y-4.4
X5.75Y-2.85
X5.8Y-4.4
X5.85Y-2.85
X5.9Y-4.4
X5.9496Y-3.7008
X5.95Y-2.85
X6.0Y-4.4
X6.0496Y-3.7008
X6.05Y-2.85
X6.1Y-4.4
X6.1496Y-3.0008
X6.1496Y-3.1008
X6.1496Y-3.2008
X6.1496Y-3.3008
X6.1496Y-3.4008
X6.1496Y-3.5008
X6.1496Y-3.6008
X6.1496Y-3.7008
X6.2Y-4.4
X6.3Y-4.4
X6.3504Y-3.0008
X6.3504Y-3.1008
X6.3504Y-3.2008
X6.3504Y-3.3008
X6.3504Y-3.4008
X6.3504Y-3.5008
X6.3504Y-3.6008
X6.3504Y-3.7008
X6.45Y-2.85
X6.55Y-2.85
X6.65Y-2.85
X6.6504Y-3.7008
X6.75Y-2.85
X6.7504Y-3.7008
X6.8504Y-3.0008
X6.8504Y-3.1008
X6.8504Y-3.2008
X6.8504Y-3.3008
X6.8504Y-3.4008
X6.8504Y-3.5008
X6.8504Y-3.6008
X6.8504Y-3.7008
X6.9866Y-4.5079
X7.0866Y-4.5079
X7.1866Y-4.5079
T6
X7.3068Y-3.8016
X7.3068Y-3.9984
T7
X6.4488Y-4.9606
X6.7717Y-4.9606
T8
X4.1732Y-2.9134
X4.1732Y-4.9213
X7.4016Y-2.9134
X7.4016Y-4.9213
M30
