%TF.GenerationSoftware,KiCad,Pcbnew,9.0.1*%
%TF.CreationDate,2026-06-02T22:59:50+02:00*%
%TF.ProjectId,Balance_bot_V0,42616c61-6e63-4655-9f62-6f745f56302e,rev?*%
%TF.SameCoordinates,Original*%
%TF.FileFunction,Copper,L1,Top*%
%TF.FilePolarity,Positive*%
%FSLAX46Y46*%
G04 Gerber Fmt 4.6, Leading zero omitted, Abs format (unit mm)*
G04 Created by KiCad (PCBNEW 9.0.1) date 2026-06-02 22:59:50*
%MOMM*%
%LPD*%
G01*
G04 APERTURE LIST*
G04 Aperture macros list*
%AMRoundRect*
0 Rectangle with rounded corners*
0 $1 Rounding radius*
0 $2 $3 $4 $5 $6 $7 $8 $9 X,Y pos of 4 corners*
0 Add a 4 corners polygon primitive as box body*
4,1,4,$2,$3,$4,$5,$6,$7,$8,$9,$2,$3,0*
0 Add four circle primitives for the rounded corners*
1,1,$1+$1,$2,$3*
1,1,$1+$1,$4,$5*
1,1,$1+$1,$6,$7*
1,1,$1+$1,$8,$9*
0 Add four rect primitives between the rounded corners*
20,1,$1+$1,$2,$3,$4,$5,0*
20,1,$1+$1,$4,$5,$6,$7,0*
20,1,$1+$1,$6,$7,$8,$9,0*
20,1,$1+$1,$8,$9,$2,$3,0*%
G04 Aperture macros list end*
%TA.AperFunction,ComponentPad*%
%ADD10C,0.800000*%
%TD*%
%TA.AperFunction,ComponentPad*%
%ADD11C,6.000000*%
%TD*%
%TA.AperFunction,ComponentPad*%
%ADD12C,2.000000*%
%TD*%
%TA.AperFunction,SMDPad,CuDef*%
%ADD13RoundRect,0.250000X-1.412500X-0.550000X1.412500X-0.550000X1.412500X0.550000X-1.412500X0.550000X0*%
%TD*%
%TA.AperFunction,SMDPad,CuDef*%
%ADD14RoundRect,0.250000X0.625000X-0.312500X0.625000X0.312500X-0.625000X0.312500X-0.625000X-0.312500X0*%
%TD*%
%TA.AperFunction,SMDPad,CuDef*%
%ADD15RoundRect,0.250000X-0.625000X0.312500X-0.625000X-0.312500X0.625000X-0.312500X0.625000X0.312500X0*%
%TD*%
%TA.AperFunction,ComponentPad*%
%ADD16O,2.200000X3.500000*%
%TD*%
%TA.AperFunction,ComponentPad*%
%ADD17R,1.500000X2.500000*%
%TD*%
%TA.AperFunction,ComponentPad*%
%ADD18O,1.500000X2.500000*%
%TD*%
%TA.AperFunction,ComponentPad*%
%ADD19R,1.700000X1.700000*%
%TD*%
%TA.AperFunction,ComponentPad*%
%ADD20C,1.700000*%
%TD*%
%TA.AperFunction,ComponentPad*%
%ADD21RoundRect,0.250000X1.050000X-1.050000X1.050000X1.050000X-1.050000X1.050000X-1.050000X-1.050000X0*%
%TD*%
%TA.AperFunction,ComponentPad*%
%ADD22C,2.600000*%
%TD*%
%TA.AperFunction,ComponentPad*%
%ADD23R,1.500000X1.500000*%
%TD*%
%TA.AperFunction,ComponentPad*%
%ADD24C,1.500000*%
%TD*%
%TA.AperFunction,ViaPad*%
%ADD25C,2.000000*%
%TD*%
%TA.AperFunction,ViaPad*%
%ADD26C,1.600000*%
%TD*%
%TA.AperFunction,Conductor*%
%ADD27C,0.600000*%
%TD*%
%TA.AperFunction,Conductor*%
%ADD28C,1.500000*%
%TD*%
%TA.AperFunction,Conductor*%
%ADD29C,1.000000*%
%TD*%
G04 APERTURE END LIST*
D10*
%TO.P,REF\u002A\u002A,1*%
%TO.N,N/C*%
X103750000Y-125000000D03*
X104409010Y-123409010D03*
X104409010Y-126590990D03*
X106000000Y-122750000D03*
D11*
X106000000Y-125000000D03*
D10*
X106000000Y-127250000D03*
X107590990Y-123409010D03*
X107590990Y-126590990D03*
X108250000Y-125000000D03*
%TD*%
%TO.P,REF\u002A\u002A,1*%
%TO.N,N/C*%
X185750000Y-74000000D03*
X186409010Y-72409010D03*
X186409010Y-75590990D03*
X188000000Y-71750000D03*
D11*
X188000000Y-74000000D03*
D10*
X188000000Y-76250000D03*
X189590990Y-72409010D03*
X189590990Y-75590990D03*
X190250000Y-74000000D03*
%TD*%
D12*
%TO.P,U1,1,VCC*%
%TO.N,+3V3*%
X160020000Y-111760000D03*
%TO.P,U1,2,GND*%
%TO.N,GND*%
X157480000Y-111760000D03*
%TO.P,U1,3,SCL*%
%TO.N,SCL*%
X154940000Y-111760000D03*
%TO.P,U1,4,SDA*%
%TO.N,SDA*%
X152400000Y-111760000D03*
%TO.P,U1,5,XDA*%
%TO.N,unconnected-(U1-XDA-Pad5)*%
X149860000Y-111760000D03*
%TO.P,U1,6,XCL*%
%TO.N,unconnected-(U1-XCL-Pad6)*%
X147320000Y-111760000D03*
%TO.P,U1,7,ADD*%
%TO.N,unconnected-(U1-ADD-Pad7)*%
X144780000Y-111760000D03*
%TO.P,U1,8,INT*%
%TO.N,unconnected-(U1-INT-Pad8)*%
X142240000Y-111760000D03*
%TD*%
D13*
%TO.P,C2,1*%
%TO.N,+Vbat*%
X143510000Y-99695000D03*
%TO.P,C2,2*%
%TO.N,GND*%
X148585000Y-99695000D03*
%TD*%
D14*
%TO.P,R3,1*%
%TO.N,+Vbat*%
X106680000Y-93595000D03*
%TO.P,R3,2*%
%TO.N,BAT_LVL*%
X106680000Y-90670000D03*
%TD*%
D12*
%TO.P,U4,*%
%TO.N,*%
X168920000Y-94000000D03*
X171460000Y-94000000D03*
%TO.P,U4,1,GND*%
%TO.N,GND*%
X161300000Y-76220000D03*
%TO.P,U4,2,VIO*%
%TO.N,+3V3*%
X161300000Y-78760000D03*
%TO.P,U4,3,B2*%
%TO.N,M1_OA2*%
X161300000Y-81300000D03*
%TO.P,U4,4,B1*%
%TO.N,M1_OA1*%
X161300000Y-83840000D03*
%TO.P,U4,5,A1*%
%TO.N,M1_OB1*%
X161300000Y-86380000D03*
%TO.P,U4,6,A2*%
%TO.N,M1_OB2*%
X161300000Y-88920000D03*
%TO.P,U4,7,GND*%
%TO.N,GND*%
X161300000Y-91460000D03*
%TO.P,U4,8,VM*%
%TO.N,+Vbat*%
X161300000Y-94000000D03*
%TO.P,U4,9,EN*%
%TO.N,M_EN*%
X174000000Y-94000000D03*
%TO.P,U4,10,MS1*%
%TO.N,GND*%
X174000000Y-91460000D03*
%TO.P,U4,11,MS2*%
X174000000Y-88920000D03*
%TO.P,U4,12,TX*%
%TO.N,PDN*%
X174000000Y-86380000D03*
%TO.P,U4,13,RX*%
%TO.N,unconnected-(U4-RX-Pad13)*%
X174000000Y-83840000D03*
%TO.P,U4,14,CLK*%
%TO.N,unconnected-(U4-CLK-Pad14)*%
X174000000Y-81300000D03*
%TO.P,U4,15,STP*%
%TO.N,M1_STP*%
X174000000Y-78760000D03*
%TO.P,U4,16,DIR*%
%TO.N,M1_DIR*%
X174000000Y-76220000D03*
%TD*%
D15*
%TO.P,R1,1*%
%TO.N,TX*%
X131699000Y-100834000D03*
%TO.P,R1,2*%
%TO.N,PDN*%
X131699000Y-103759000D03*
%TD*%
D16*
%TO.P,SW1,*%
%TO.N,*%
X163800000Y-126000000D03*
X172000000Y-126000000D03*
D17*
%TO.P,SW1,1,A*%
%TO.N,+Vbat*%
X165900000Y-126000000D03*
D18*
%TO.P,SW1,2,B*%
%TO.N,+VbatA*%
X167900000Y-126000000D03*
%TO.P,SW1,3,C*%
%TO.N,unconnected-(SW1-C-Pad3)*%
X169900000Y-126000000D03*
%TD*%
D19*
%TO.P,J3,1,Pin_1*%
%TO.N,M1_OB2*%
X171450000Y-72390000D03*
D20*
%TO.P,J3,2,Pin_2*%
%TO.N,M1_OB1*%
X168910000Y-72390000D03*
%TO.P,J3,3,Pin_3*%
%TO.N,M1_OA1*%
X166370000Y-72390000D03*
%TO.P,J3,4,Pin_4*%
%TO.N,M1_OA2*%
X163830000Y-72390000D03*
%TD*%
D19*
%TO.P,J2,1,Pin_1*%
%TO.N,M2_OB2*%
X153670000Y-72390000D03*
D20*
%TO.P,J2,2,Pin_2*%
%TO.N,M2_OB1*%
X151130000Y-72390000D03*
%TO.P,J2,3,Pin_3*%
%TO.N,M2_OA1*%
X148590000Y-72390000D03*
%TO.P,J2,4,Pin_4*%
%TO.N,M2_OA2*%
X146050000Y-72390000D03*
%TD*%
D12*
%TO.P,U3,*%
%TO.N,*%
X151120000Y-94000000D03*
X153660000Y-94000000D03*
%TO.P,U3,1,GND*%
%TO.N,GND*%
X143500000Y-76220000D03*
%TO.P,U3,2,VIO*%
%TO.N,+3V3*%
X143500000Y-78760000D03*
%TO.P,U3,3,B2*%
%TO.N,M2_OA2*%
X143500000Y-81300000D03*
%TO.P,U3,4,B1*%
%TO.N,M2_OA1*%
X143500000Y-83840000D03*
%TO.P,U3,5,A1*%
%TO.N,M2_OB1*%
X143500000Y-86380000D03*
%TO.P,U3,6,A2*%
%TO.N,M2_OB2*%
X143500000Y-88920000D03*
%TO.P,U3,7,GND*%
%TO.N,GND*%
X143500000Y-91460000D03*
%TO.P,U3,8,VM*%
%TO.N,+Vbat*%
X143500000Y-94000000D03*
%TO.P,U3,9,EN*%
%TO.N,M_EN*%
X156200000Y-94000000D03*
%TO.P,U3,10,MS1*%
%TO.N,+3V3*%
X156200000Y-91460000D03*
%TO.P,U3,11,MS2*%
%TO.N,GND*%
X156200000Y-88920000D03*
%TO.P,U3,12,TX*%
%TO.N,PDN*%
X156200000Y-86380000D03*
%TO.P,U3,13,RX*%
%TO.N,unconnected-(U3-RX-Pad13)*%
X156200000Y-83840000D03*
%TO.P,U3,14,CLK*%
%TO.N,unconnected-(U3-CLK-Pad14)*%
X156200000Y-81300000D03*
%TO.P,U3,15,STP*%
%TO.N,M2_STP*%
X156200000Y-78760000D03*
%TO.P,U3,16,DIR*%
%TO.N,M2_DIR*%
X156200000Y-76220000D03*
%TD*%
%TO.P,U2,1,EN*%
%TO.N,unconnected-(U2-EN-Pad1)*%
X111600000Y-80460000D03*
%TO.P,U2,2,VP*%
%TO.N,unconnected-(U2-VP-Pad2)*%
X111600000Y-83000000D03*
%TO.P,U2,3,VN*%
%TO.N,unconnected-(U2-VN-Pad3)*%
X111600000Y-85540000D03*
%TO.P,U2,4,IO34*%
%TO.N,unconnected-(U2-IO34-Pad4)*%
X111600000Y-88080000D03*
%TO.P,U2,5,IO35*%
%TO.N,BAT_LVL*%
X111600000Y-90620000D03*
%TO.P,U2,6,IO32*%
%TO.N,M1_DIR*%
X111600000Y-93160000D03*
%TO.P,U2,7,IO33*%
%TO.N,M2_DIR*%
X111600000Y-95700000D03*
%TO.P,U2,8,IO25*%
%TO.N,M1_STP*%
X111600000Y-98240000D03*
%TO.P,U2,9,IO26*%
%TO.N,M2_STP*%
X111600000Y-100780000D03*
%TO.P,U2,10,IO27*%
%TO.N,M_EN*%
X111600000Y-103320000D03*
%TO.P,U2,11,IO14*%
%TO.N,unconnected-(U2-IO14-Pad11)*%
X111600000Y-105860000D03*
%TO.P,U2,12,IO12*%
%TO.N,unconnected-(U2-IO12-Pad12)*%
X111600000Y-108400000D03*
%TO.P,U2,13,IO13*%
%TO.N,unconnected-(U2-IO13-Pad13)*%
X111600000Y-110940000D03*
%TO.P,U2,14,GND*%
%TO.N,GND*%
X111600000Y-113480000D03*
%TO.P,U2,15,Vin*%
%TO.N,+5V*%
X111600000Y-116020000D03*
%TO.P,U2,16,3V3*%
%TO.N,+3V3*%
X137000000Y-116020000D03*
%TO.P,U2,17,GND*%
%TO.N,GND*%
X137000000Y-113480000D03*
%TO.P,U2,18,IO15*%
%TO.N,unconnected-(U2-IO15-Pad18)*%
X137000000Y-110940000D03*
%TO.P,U2,19,IO2*%
%TO.N,unconnected-(U2-IO2-Pad19)*%
X137000000Y-108400000D03*
%TO.P,U2,20,IO4*%
%TO.N,unconnected-(U2-IO4-Pad20)*%
X137000000Y-105860000D03*
%TO.P,U2,21,IO16*%
%TO.N,PDN*%
X137000000Y-103320000D03*
%TO.P,U2,22,IO17*%
%TO.N,TX*%
X137000000Y-100780000D03*
%TO.P,U2,23,IO5*%
%TO.N,unconnected-(U2-IO5-Pad23)*%
X137000000Y-98240000D03*
%TO.P,U2,24,IO18*%
%TO.N,unconnected-(U2-IO18-Pad24)*%
X137000000Y-95700000D03*
%TO.P,U2,25,IO19*%
%TO.N,unconnected-(U2-IO19-Pad25)*%
X137000000Y-93160000D03*
%TO.P,U2,26,IO21*%
%TO.N,SDA*%
X137000000Y-90620000D03*
%TO.P,U2,27,RXD0*%
%TO.N,unconnected-(U2-RXD0-Pad27)*%
X137000000Y-88080000D03*
%TO.P,U2,28,TXD0*%
%TO.N,unconnected-(U2-TXD0-Pad28)*%
X137000000Y-85540000D03*
%TO.P,U2,29,IO22*%
%TO.N,SCL*%
X137000000Y-83000000D03*
%TO.P,U2,30,IO23*%
%TO.N,unconnected-(U2-IO23-Pad30)*%
X137000000Y-80460000D03*
%TD*%
D21*
%TO.P,J4,1,Pin_1*%
%TO.N,+VbatA*%
X185592500Y-101560000D03*
D22*
%TO.P,J4,2,Pin_2*%
%TO.N,GND*%
X185592500Y-96560000D03*
%TD*%
D23*
%TO.P,U5,1,Vin*%
%TO.N,+Vbat*%
X177460000Y-114500000D03*
D24*
%TO.P,U5,2,GND*%
%TO.N,GND*%
X180000000Y-114500000D03*
%TO.P,U5,3,Vout*%
%TO.N,+5V*%
X182540000Y-114500000D03*
%TD*%
D14*
%TO.P,R4,1*%
%TO.N,BAT_LVL*%
X106680000Y-88015000D03*
%TO.P,R4,2*%
%TO.N,GND*%
X106680000Y-85090000D03*
%TD*%
D13*
%TO.P,C1,1*%
%TO.N,+Vbat*%
X161295000Y-99695000D03*
%TO.P,C1,2*%
%TO.N,GND*%
X166370000Y-99695000D03*
%TD*%
D10*
%TO.P,REF\u002A\u002A,1*%
%TO.N,N/C*%
X185750000Y-125000000D03*
X186409010Y-123409010D03*
X186409010Y-126590990D03*
X188000000Y-122750000D03*
D11*
X188000000Y-125000000D03*
D10*
X188000000Y-127250000D03*
X189590990Y-123409010D03*
X189590990Y-126590990D03*
X190250000Y-125000000D03*
%TD*%
%TO.P,REF\u002A\u002A,1*%
%TO.N,N/C*%
X103750000Y-74000000D03*
X104409010Y-72409010D03*
X104409010Y-75590990D03*
X106000000Y-71750000D03*
D11*
X106000000Y-74000000D03*
D10*
X106000000Y-76250000D03*
X107590990Y-72409010D03*
X107590990Y-75590990D03*
X108250000Y-74000000D03*
%TD*%
D25*
%TO.N,GND*%
X170815000Y-99695000D03*
X155575000Y-99695000D03*
D26*
X106680000Y-82550000D03*
D25*
%TO.N,+Vbat*%
X165900000Y-108750000D03*
%TD*%
D27*
%TO.N,M2_DIR*%
X111600000Y-95700000D02*
X113850000Y-95700000D01*
X113850000Y-95700000D02*
X136525000Y-73025000D01*
X136525000Y-73025000D02*
X144145000Y-73025000D01*
X144145000Y-73025000D02*
X147340000Y-76220000D01*
X147340000Y-76220000D02*
X156200000Y-76220000D01*
D28*
%TO.N,GND*%
X180040000Y-114540000D02*
X180000000Y-114500000D01*
X170815000Y-99695000D02*
X166370000Y-99695000D01*
D29*
X106680000Y-85090000D02*
X106680000Y-82550000D01*
D28*
X148270000Y-99695000D02*
X155575000Y-99695000D01*
D29*
%TO.N,BAT_LVL*%
X106680000Y-90670000D02*
X111550000Y-90670000D01*
X106680000Y-88015000D02*
X106680000Y-90670000D01*
X111550000Y-90670000D02*
X111600000Y-90620000D01*
D27*
%TO.N,PDN*%
X136942000Y-103378000D02*
X137000000Y-103320000D01*
X157460000Y-86380000D02*
X156200000Y-86380000D01*
X143075409Y-103320000D02*
X147705409Y-107950000D01*
X166370000Y-77216000D02*
X163322000Y-74168000D01*
X163830000Y-111760000D02*
X169164000Y-111760000D01*
X134874000Y-103378000D02*
X136942000Y-103378000D01*
X158242000Y-75946000D02*
X158242000Y-85598000D01*
X171216000Y-86380000D02*
X166370000Y-81534000D01*
X174000000Y-86380000D02*
X171216000Y-86380000D01*
X177546000Y-103378000D02*
X177546000Y-88138000D01*
X134489000Y-103763000D02*
X134874000Y-103378000D01*
X137000000Y-103320000D02*
X143075409Y-103320000D01*
X160020000Y-107950000D02*
X163830000Y-111760000D01*
X177546000Y-88138000D02*
X175768000Y-86360000D01*
X175748000Y-86380000D02*
X174000000Y-86380000D01*
X169164000Y-111760000D02*
X177546000Y-103378000D01*
X158242000Y-85598000D02*
X157460000Y-86380000D01*
X132334000Y-103763000D02*
X134489000Y-103763000D01*
X163322000Y-74168000D02*
X160020000Y-74168000D01*
X166370000Y-81534000D02*
X166370000Y-77216000D01*
X160020000Y-74168000D02*
X158242000Y-75946000D01*
X147705409Y-107950000D02*
X160020000Y-107950000D01*
X175768000Y-86360000D02*
X175748000Y-86380000D01*
D28*
%TO.N,+Vbat*%
X161290000Y-104140000D02*
X161290000Y-99060000D01*
D29*
X106680000Y-93595000D02*
X106680000Y-116840000D01*
D28*
X161290000Y-94010000D02*
X161300000Y-94000000D01*
D29*
X162800000Y-120650000D02*
X165900000Y-123750000D01*
D28*
X161290000Y-99060000D02*
X161290000Y-94010000D01*
D29*
X106680000Y-116840000D02*
X110490000Y-120650000D01*
D28*
X143510000Y-94010000D02*
X143500000Y-94000000D01*
X143510000Y-100330000D02*
X143510000Y-99060000D01*
X161150000Y-104000000D02*
X147180000Y-104000000D01*
X165900000Y-108750000D02*
X161290000Y-104140000D01*
X143510000Y-99060000D02*
X143510000Y-94010000D01*
D29*
X165900000Y-123750000D02*
X165900000Y-126000000D01*
D28*
X161290000Y-104140000D02*
X161150000Y-104000000D01*
D29*
X110490000Y-120650000D02*
X162800000Y-120650000D01*
D28*
X147180000Y-104000000D02*
X143510000Y-100330000D01*
D27*
%TO.N,TX*%
X136942000Y-100838000D02*
X132334000Y-100838000D01*
X137000000Y-100780000D02*
X136942000Y-100838000D01*
%TD*%
M02*
