%TF.GenerationSoftware,KiCad,Pcbnew,9.0.1*%
%TF.CreationDate,2026-06-02T22:59:51+02:00*%
%TF.ProjectId,Balance_bot_V0,42616c61-6e63-4655-9f62-6f745f56302e,rev?*%
%TF.SameCoordinates,Original*%
%TF.FileFunction,Soldermask,Top*%
%TF.FilePolarity,Negative*%
%FSLAX46Y46*%
G04 Gerber Fmt 4.6, Leading zero omitted, Abs format (unit mm)*
G04 Created by KiCad (PCBNEW 9.0.1) date 2026-06-02 22:59:51*
%MOMM*%
%LPD*%
G01*
G04 APERTURE LIST*
G04 Aperture macros list*
%AMRoundRect*
0 Rectangle with rounded corners*
0 $1 Rounding radius*
0 $2 $3 $4 $5 $6 $7 $8 $9 X,Y pos of 4 corners*
0 Add a 4 corners polygon primitive as box body*
4,1,4,$2,$3,$4,$5,$6,$7,$8,$9,$2,$3,0*
0 Add four circle primitives for the rounded corners*
1,1,$1+$1,$2,$3*
1,1,$1+$1,$4,$5*
1,1,$1+$1,$6,$7*
1,1,$1+$1,$8,$9*
0 Add four rect primitives between the rounded corners*
20,1,$1+$1,$2,$3,$4,$5,0*
20,1,$1+$1,$4,$5,$6,$7,0*
20,1,$1+$1,$6,$7,$8,$9,0*
20,1,$1+$1,$8,$9,$2,$3,0*%
G04 Aperture macros list end*
%ADD10C,0.800000*%
%ADD11C,6.000000*%
%ADD12C,2.000000*%
%ADD13RoundRect,0.250000X-1.412500X-0.550000X1.412500X-0.550000X1.412500X0.550000X-1.412500X0.550000X0*%
%ADD14RoundRect,0.250000X0.625000X-0.312500X0.625000X0.312500X-0.625000X0.312500X-0.625000X-0.312500X0*%
%ADD15RoundRect,0.250000X-0.625000X0.312500X-0.625000X-0.312500X0.625000X-0.312500X0.625000X0.312500X0*%
%ADD16O,2.200000X3.500000*%
%ADD17R,1.500000X2.500000*%
%ADD18O,1.500000X2.500000*%
%ADD19R,1.700000X1.700000*%
%ADD20C,1.700000*%
%ADD21RoundRect,0.250000X1.050000X-1.050000X1.050000X1.050000X-1.050000X1.050000X-1.050000X-1.050000X0*%
%ADD22C,2.600000*%
%ADD23R,1.500000X1.500000*%
%ADD24C,1.500000*%
G04 APERTURE END LIST*
D10*
%TO.C,REF\u002A\u002A*%
X103750000Y-125000000D03*
X104409010Y-123409010D03*
X104409010Y-126590990D03*
X106000000Y-122750000D03*
D11*
X106000000Y-125000000D03*
D10*
X106000000Y-127250000D03*
X107590990Y-123409010D03*
X107590990Y-126590990D03*
X108250000Y-125000000D03*
%TD*%
%TO.C,REF\u002A\u002A*%
X185750000Y-74000000D03*
X186409010Y-72409010D03*
X186409010Y-75590990D03*
X188000000Y-71750000D03*
D11*
X188000000Y-74000000D03*
D10*
X188000000Y-76250000D03*
X189590990Y-72409010D03*
X189590990Y-75590990D03*
X190250000Y-74000000D03*
%TD*%
D12*
%TO.C,U1*%
X160020000Y-111760000D03*
X157480000Y-111760000D03*
X154940000Y-111760000D03*
X152400000Y-111760000D03*
X149860000Y-111760000D03*
X147320000Y-111760000D03*
X144780000Y-111760000D03*
X142240000Y-111760000D03*
%TD*%
D13*
%TO.C,C2*%
X143510000Y-99695000D03*
X148585000Y-99695000D03*
%TD*%
D14*
%TO.C,R3*%
X106680000Y-93595000D03*
X106680000Y-90670000D03*
%TD*%
D12*
%TO.C,U4*%
X168920000Y-94000000D03*
X171460000Y-94000000D03*
X161300000Y-76220000D03*
X161300000Y-78760000D03*
X161300000Y-81300000D03*
X161300000Y-83840000D03*
X161300000Y-86380000D03*
X161300000Y-88920000D03*
X161300000Y-91460000D03*
X161300000Y-94000000D03*
X174000000Y-94000000D03*
X174000000Y-91460000D03*
X174000000Y-88920000D03*
X174000000Y-86380000D03*
X174000000Y-83840000D03*
X174000000Y-81300000D03*
X174000000Y-78760000D03*
X174000000Y-76220000D03*
%TD*%
D15*
%TO.C,R1*%
X131699000Y-100834000D03*
X131699000Y-103759000D03*
%TD*%
D16*
%TO.C,SW1*%
X163800000Y-126000000D03*
X172000000Y-126000000D03*
D17*
X165900000Y-126000000D03*
D18*
X167900000Y-126000000D03*
X169900000Y-126000000D03*
%TD*%
D19*
%TO.C,J3*%
X171450000Y-72390000D03*
D20*
X168910000Y-72390000D03*
X166370000Y-72390000D03*
X163830000Y-72390000D03*
%TD*%
D19*
%TO.C,J2*%
X153670000Y-72390000D03*
D20*
X151130000Y-72390000D03*
X148590000Y-72390000D03*
X146050000Y-72390000D03*
%TD*%
D12*
%TO.C,U3*%
X151120000Y-94000000D03*
X153660000Y-94000000D03*
X143500000Y-76220000D03*
X143500000Y-78760000D03*
X143500000Y-81300000D03*
X143500000Y-83840000D03*
X143500000Y-86380000D03*
X143500000Y-88920000D03*
X143500000Y-91460000D03*
X143500000Y-94000000D03*
X156200000Y-94000000D03*
X156200000Y-91460000D03*
X156200000Y-88920000D03*
X156200000Y-86380000D03*
X156200000Y-83840000D03*
X156200000Y-81300000D03*
X156200000Y-78760000D03*
X156200000Y-76220000D03*
%TD*%
%TO.C,U2*%
X111600000Y-80460000D03*
X111600000Y-83000000D03*
X111600000Y-85540000D03*
X111600000Y-88080000D03*
X111600000Y-90620000D03*
X111600000Y-93160000D03*
X111600000Y-95700000D03*
X111600000Y-98240000D03*
X111600000Y-100780000D03*
X111600000Y-103320000D03*
X111600000Y-105860000D03*
X111600000Y-108400000D03*
X111600000Y-110940000D03*
X111600000Y-113480000D03*
X111600000Y-116020000D03*
X137000000Y-116020000D03*
X137000000Y-113480000D03*
X137000000Y-110940000D03*
X137000000Y-108400000D03*
X137000000Y-105860000D03*
X137000000Y-103320000D03*
X137000000Y-100780000D03*
X137000000Y-98240000D03*
X137000000Y-95700000D03*
X137000000Y-93160000D03*
X137000000Y-90620000D03*
X137000000Y-88080000D03*
X137000000Y-85540000D03*
X137000000Y-83000000D03*
X137000000Y-80460000D03*
%TD*%
D21*
%TO.C,J4*%
X185592500Y-101560000D03*
D22*
X185592500Y-96560000D03*
%TD*%
D23*
%TO.C,U5*%
X177460000Y-114500000D03*
D24*
X180000000Y-114500000D03*
X182540000Y-114500000D03*
%TD*%
D14*
%TO.C,R4*%
X106680000Y-88015000D03*
X106680000Y-85090000D03*
%TD*%
D13*
%TO.C,C1*%
X161295000Y-99695000D03*
X166370000Y-99695000D03*
%TD*%
D10*
%TO.C,REF\u002A\u002A*%
X185750000Y-125000000D03*
X186409010Y-123409010D03*
X186409010Y-126590990D03*
X188000000Y-122750000D03*
D11*
X188000000Y-125000000D03*
D10*
X188000000Y-127250000D03*
X189590990Y-123409010D03*
X189590990Y-126590990D03*
X190250000Y-125000000D03*
%TD*%
%TO.C,REF\u002A\u002A*%
X103750000Y-74000000D03*
X104409010Y-72409010D03*
X104409010Y-75590990D03*
X106000000Y-71750000D03*
D11*
X106000000Y-74000000D03*
D10*
X106000000Y-76250000D03*
X107590990Y-72409010D03*
X107590990Y-75590990D03*
X108250000Y-74000000D03*
%TD*%
M02*
